<?xml version="1.0" encoding="UTF-8" standalone="no"?>
<svg
   version="1.1"
   width="549.59998pt"
   height="272.56207pt"
   viewBox="0 0 549.59997 272.56207"
   id="svg22"
   xmlns="http://www.w3.org/2000/svg"
   xmlns:svg="http://www.w3.org/2000/svg">
  <defs
     id="defs26" />
  <g
     enable-background="new"
     id="g20"
     transform="translate(-146.14501,-161.357)">
    <clipPath
       id="cp0">
      <path
         transform="matrix(1,0,0,-1,0,595.276)"
         d="M 0,0 H 841.89 V 595.276 H 0 Z"
         id="path2" />
    </clipPath>
    <g
       clip-path="url(#cp0)"
       id="g7">
      <path
         transform="matrix(1,0,0,-1,194.8654,389.4301)"
         d="M 0,0 V 3.834 H -19.7 V 0 l 5.553,-1.388 V -16.923 H -34.573 V -1.388 L -29.021,0 V 3.834 H -48.72 V 0 l 5.553,-1.388 V -38.54 l -5.553,-1.388 v -3.834 h 19.699 v 3.834 l -5.552,1.388 v 16.791 h 20.426 V -38.54 l -5.553,-1.388 v -3.834 H 0 v 3.834 l -5.553,1.388 v 37.152 z m 35.432,-10.577 h -5.355 l -1.124,-6.28 h -9.056 v 15.865 h 17.055 l 1.917,-9.188 H 44.29 V 3.834 H 5.089 V 0 l 6.214,-1.388 V -38.54 l -6.214,-1.388 v -3.834 h 40.655 v 14.741 h -5.817 l -1.851,-9.783 H 19.897 v 16.989 h 9.056 l 1.124,-6.214 h 5.355 z m 16.13,-29.351 v -3.834 h 17.385 v 3.834 l -5.552,1.388 v 32.723 l 24.459,-37.945 h 7.337 V -1.388 L 100.744,0 V 3.834 H 83.359 V 0 l 5.552,-1.388 V -31.07 L 66.832,3.834 H 51.562 V 0 l 5.552,-1.388 V -38.54 Z m 92.382,25.88 c 0.902,1.785 1.355,3.603 1.355,5.454 0,1.851 -0.463,3.691 -1.388,5.52 -0.926,1.828 -2.182,3.294 -3.768,4.396 -1.235,0.881 -2.656,1.521 -4.264,1.917 -1.609,0.397 -3.471,0.595 -5.586,0.595 H 105.569 V 0 l 5.553,-1.388 V -38.54 l -5.553,-1.388 v -3.834 h 20.427 v 3.834 l -6.28,1.388 v 15.601 h 6.346 l 8.66,-16.989 v -3.834 h 15.601 v 3.834 l -5.883,1.256 -8.198,13.882 c -0.441,0.749 -0.903,1.399 -1.388,1.95 -0.485,0.551 -0.838,0.936 -1.058,1.157 1.543,0.352 2.81,0.815 3.802,1.388 0.991,0.573 1.884,1.168 2.677,1.785 1.542,1.19 2.765,2.678 3.669,4.462 m -24.228,13.056 h 7.205 c 1.41,0 2.612,-0.132 3.603,-0.396 0.992,-0.265 1.861,-0.706 2.611,-1.322 0.881,-0.706 1.587,-1.598 2.116,-2.678 0.529,-1.08 0.793,-2.28 0.793,-3.602 0,-1.455 -0.254,-2.81 -0.76,-4.066 -0.507,-1.256 -1.201,-2.259 -2.083,-3.008 -1.586,-1.366 -3.592,-2.049 -6.015,-2.049 h -7.47 z M 173.658,0 V 3.834 H 152.636 V 0 l 6.214,-1.388 V -38.54 l -6.214,-1.388 v -3.834 h 21.022 v 3.834 l -6.214,1.388 v 37.152 z m 20.691,-39.928 v -3.834 h 17.386 v 3.834 l -5.553,1.388 v 32.723 l 24.459,-37.945 h 7.338 V -1.388 L 243.531,0 V 3.834 H 226.146 V 0 l 5.553,-1.388 V -31.07 l -22.08,34.904 h -15.27 V 0 l 5.553,-1.388 V -38.54 Z M 269.047,0 V 3.834 H 248.026 V 0 l 6.214,-1.388 V -38.54 l -6.214,-1.388 v -3.834 h 21.021 v 3.834 l -6.213,1.388 v 37.152 z m 31.897,-43.002 c 2.445,0.992 4.396,2.479 5.85,4.462 1.454,1.983 2.181,4.451 2.181,7.404 0,2.159 -0.474,4.043 -1.421,5.652 -0.948,1.608 -2.523,3.14 -4.726,4.595 -2.205,1.454 -5.157,3.018 -8.859,4.693 -2.468,1.101 -4.418,2.049 -5.85,2.843 -1.433,0.793 -2.457,1.652 -3.074,2.578 -0.618,0.925 -0.925,2.158 -0.925,3.702 0,4.715 2.489,7.073 7.47,7.073 3.216,0 5.596,-0.992 7.139,-2.975 1.542,-1.983 2.314,-5.047 2.314,-9.188 h 5.751 V 3.834 h -5.685 L 300.58,0.859 c -2.733,2.468 -6.28,3.702 -10.643,3.702 -4.408,0 -7.922,-1.168 -10.544,-3.503 -2.623,-2.337 -3.933,-5.642 -3.933,-9.916 0,-2.557 0.506,-4.672 1.52,-6.346 1.013,-1.676 2.489,-3.107 4.429,-4.297 1.939,-1.19 4.274,-2.358 7.008,-3.504 2.379,-0.97 4.462,-1.907 6.246,-2.809 1.785,-0.904 3.174,-1.94 4.165,-3.107 0.992,-1.169 1.488,-2.656 1.488,-4.463 0,-2.204 -0.75,-3.834 -2.248,-4.891 -1.499,-1.058 -3.504,-1.587 -6.016,-1.587 -3.129,0 -5.641,0.914 -7.536,2.744 -1.895,1.828 -2.975,4.946 -3.239,9.353 h -6.016 v -15.997 h 5.686 l 0.727,3.834 c 1.365,-1.587 2.919,-2.743 4.66,-3.471 1.741,-0.727 3.867,-1.09 6.379,-1.09 3.041,0 5.785,0.495 8.231,1.487 M 334.69,0 V 3.834 H 314.329 V 0 l 6.214,-1.388 V -38.54 l -6.214,-1.388 v -3.834 h 20.361 v 3.834 l -5.553,1.388 v 14.345 l 3.041,2.909 14.015,-17.32 -4.364,-1.322 v -3.834 h 20.427 v 3.834 l -5.553,1.256 -18.972,22.939 14.477,14.345 L 358.025,0 V 3.834 H 338.656 V 0 l 6.016,-1.388 -15.535,-16.13 v 16.13 z m 55.264,-39.928 v -3.834 h 20.163 v 3.834 l -5.289,1.388 -15.336,43.035 h -8.132 l -15.468,-43.035 -5.421,-1.388 v -3.834 h 17.452 v 3.834 l -5.487,1.388 3.438,10.247 h 16.13 l 3.371,-10.247 z m -5.685,35.697 6.148,-19.237 h -12.891 l 6.479,19.237 z M 433.518,0 V 3.834 H 411.835 V 0 l 6.214,-1.388 V -38.54 l -6.214,-1.388 v -3.834 h 38.672 v 16.394 h -5.619 l -2.247,-11.436 h -15.998 v 37.416 z m 47.199,-39.928 v -3.834 h 20.162 v 3.834 l -5.288,1.388 -15.337,43.035 h -8.131 l -15.469,-43.035 -5.42,-1.388 v -3.834 h 17.452 v 3.834 l -5.487,1.388 3.437,10.247 h 16.13 l 3.372,-10.247 z m -5.685,35.697 6.148,-19.237 h -12.891 l 6.478,19.237 z"
         fill="#522a45"
         id="path5" />
    </g>
    <path
       transform="matrix(1,0,0,-1,0,595.276)"
       d="m 146.145,235.919 h 549.6 v 198 h -549.6 z"
       fill="#522a45"
       id="path9" />
    <clipPath
       id="cp1">
      <path
         transform="matrix(1,0,0,-1,0,595.276)"
         d="M 0,0 H 841.89 V 595.276 H 0 Z"
         id="path11" />
    </clipPath>
    <g
       clip-path="url(#cp1)"
       id="g16">
      <path
         transform="matrix(1,0,0,-1,610.7849,302.357)"
         d="m 0,0 h 2.28 l 8.64,17.88 V 18 H 5.88 L 1.2,7.68 H 1.08 L -3.6,18 h -5.04 v -0.12 z m -32.76,0 h 4.8 v 8.4 h 0.12 L -21.36,0 h 5.76 v 0.12 l -7.44,9.36 7.2,8.4 V 18 h -5.52 l -6.48,-7.8 h -0.12 V 18 h -4.8 z m -22.92,0 h 13.2 v 4.2 h -8.4 V 18 h -4.8 z m 89.64,34.8 c 3.6,0 6.48,2.76 6.48,6.36 0,3.6 -2.88,6.36 -6.48,6.36 -3.48,0 -6.48,-2.76 -6.48,-6.36 0,-3.6 2.88,-6.36 6.48,-6.36 m -32.4,0 c 10.56,0 19.56,5.16 19.56,14.76 0,7.92 -5.16,12.84 -12.24,15.48 l -5.16,1.92 c -4.2,1.56 -7.56,3 -7.56,6.36 0,3.36 3.24,5.64 8.04,5.64 3.72,0 8.4,-1.2 14.16,-3.96 l 1.92,6.6 c -4.32,1.8 -9.96,3.6 -15.96,3.6 -10.56,0 -19.56,-5.4 -19.56,-14.88 0,-7.32 5.16,-11.52 12.24,-14.16 l 5.16,-1.92 c 5.16,-1.92 7.56,-3.6 7.56,-7.2 0,-3.84 -3.24,-6 -7.92,-6 -4.08,0 -9,1.32 -15.12,3.96 l -1.92,-6.6 c 4.56,-1.8 10.56,-3.6 16.8,-3.6 m -49.2,6 c -8.16,0 -12.6,7.32 -12.6,19.2 0,11.88 4.44,19.2 12.6,19.2 8.16,0 12.6,-7.32 12.6,-19.2 0,-11.88 -4.44,-19.2 -12.6,-19.2 m 0,-6 c 15.24,0 25.8,10.8 25.8,25.2 0,14.4 -10.56,25.2 -25.8,25.2 -15.24,0 -25.8,-10.8 -25.8,-25.2 0,-14.4 10.56,-25.2 25.8,-25.2 M -122.04,0 h 16.8 v 76.32 h 24.6 V 84 h -66 v -7.68 h 24.6 z m -67.56,-1.2 c 21,0 32.76,11.88 32.76,32.88 V 84 h -8.4 V 30.48 c 0,-14.28 -7.56,-23.04 -20.76,-23.04 -13.2,0 -20.04,8.76 -20.04,26.04 V 84 h -16.8 V 32.28 c 0,-21.24 12,-33.48 33.24,-33.48 m -81.6,0 c 21,0 32.76,11.88 32.76,32.88 V 84 h -8.4 V 30.48 c 0,-14.28 -7.56,-23.04 -20.76,-23.04 -13.2,0 -20.04,8.76 -20.04,26.04 V 84 h -16.8 V 32.28 c 0,-21.24 12,-33.48 33.24,-33.48 M -404.64,0 h 8.4 V 51.24 H -396 L -370.44,6 h 7.2 l 25.56,45.24 h 0.24 V 0 h 16.8 v 84 h -7.8 l -33.48,-59.16 h -0.24 L -395.64,84 h -9 z"
         fill="#d7a562"
         id="path14" />
    </g>
    <path
       transform="matrix(1,0,0,-1,0,595.276)"
       d="m 536.745,317.039 h 99.6 v 5.76 h -99.6 z"
       fill="#e64783"
       id="path18" />
  </g>
</svg>
