<?xml version="1.0" encoding="UTF-8" standalone="no"?>
<!-- Created with Inkscape (http://www.inkscape.org/) -->

<svg
   width="118.97599mm"
   height="27.450804mm"
   viewBox="0 0 118.97599 27.450804"
   version="1.1"
   id="svg5"
   xml:space="preserve"
   xmlns="http://www.w3.org/2000/svg"
   xmlns:svg="http://www.w3.org/2000/svg"><defs
     id="defs2"><linearGradient
       id="a"
       x1="-277.375"
       x2="-277.375"
       y1="406.60181"
       y2="407.5726"
       gradientTransform="matrix(26.302709,0,0,-26.156599,7313.6345,10663.905)"
       gradientUnits="userSpaceOnUse">
    <stop
   offset="0"
   stop-color="#0062e0"
   id="stop226" />
    <stop
   offset="1"
   stop-color="#19afff"
   id="stop228" />
  </linearGradient></defs><g
     id="layer1"
     style="display:inline"
     transform="translate(-4.7687269,-2.0486795)"><g
       transform="matrix(0.13801197,0,0,0.13801197,168.22739,108.75944)"
       id="g17"
       style="display:none"><path
         clip-path="none"
         mask="none"
         d="m -1089.333,-687.239 v 36.888 h 51.262 c -2.251,11.863 -9.006,21.908 -19.137,28.662 l 30.913,23.986 c 18.011,-16.625 28.402,-41.044 28.402,-70.052 0,-6.754 -0.606,-13.249 -1.732,-19.483 z"
         fill="#4285f4"
         id="path9" /><path
         clip-path="none"
         mask="none"
         d="m -1142.714,-651.791 -6.972,5.337 -24.679,19.223 v 0 c 15.673,31.086 47.796,52.561 85.03,52.561 25.717,0 47.278,-8.486 63.038,-23.033 l -30.913,-23.986 c -8.486,5.715 -19.31,9.179 -32.125,9.179 -24.765,0 -45.806,-16.712 -53.34,-39.226 z"
         fill="#34a853"
         id="path11" /><path
         clip-path="none"
         mask="none"
         d="m -1174.365,-712.61 c -6.494,12.815 -10.217,27.276 -10.217,42.689 0,15.413 3.723,29.874 10.217,42.689 0,0.086 31.693,-24.592 31.693,-24.592 -1.905,-5.715 -3.031,-11.776 -3.031,-18.098 0,-6.322 1.126,-12.383 3.031,-18.098 z"
         fill="#fbbc05"
         id="path13" /><path
         d="m -1089.333,-727.244 c 14.028,0 26.497,4.849 36.455,14.201 l 27.276,-27.276 c -16.539,-15.413 -38.013,-24.852 -63.731,-24.852 -37.234,0 -69.359,21.388 -85.032,52.561 l 31.692,24.592 c 7.533,-22.514 28.575,-39.226 53.34,-39.226 z"
         fill="#ea4335"
         clip-path="none"
         mask="none"
         id="path15" /></g><g
       style="clip-rule:evenodd;display:inline;fill-rule:evenodd;stroke-linejoin:round;stroke-miterlimit:2"
       id="g383"
       transform="matrix(0.05377886,0,0,0.05377886,30.547633,20.9419)"><g
         transform="translate(-634.728,-382.568)"
         id="g349">
        <path
   d="m 702.68,382.568 16.041,49.37 h 51.911 l -41.997,30.512 16.042,49.37 -41.997,-30.512 -41.997,30.512 16.041,-49.37 -41.996,-30.512 h 51.911 z"
   style="fill:#ffd800"
   id="path347" />
    </g><g
         transform="translate(-447.914,-382.568)"
         id="g353">
        <path
   d="m 702.68,382.568 16.041,49.37 h 51.911 l -41.997,30.512 16.042,49.37 -41.997,-30.512 -41.997,30.512 16.041,-49.37 -41.996,-30.512 h 51.911 z"
   style="fill:#ffd800"
   id="path351" />
    </g><g
         transform="translate(-261.961,-382.568)"
         id="g357">
        <path
   d="m 702.68,382.568 16.041,49.37 h 51.911 l -41.997,30.512 16.042,49.37 -41.997,-30.512 -41.997,30.512 16.041,-49.37 -41.996,-30.512 h 51.911 z"
   style="fill:#ffd800"
   id="path355" />
    </g><g
         transform="translate(-76.0238,-382.568)"
         id="g361">
        <path
   d="m 702.68,382.568 16.041,49.37 h 51.911 l -41.997,30.512 16.042,49.37 -41.997,-30.512 -41.997,30.512 16.041,-49.37 -41.996,-30.512 h 51.911 z"
   style="fill:#ffd800"
   id="path359" />
    </g><g
         transform="translate(109.853,-382.568)"
         id="g365">
        <path
   d="m 702.68,382.568 16.041,49.37 h 51.911 l -41.997,30.512 16.042,49.37 -41.997,-30.512 -41.997,30.512 16.041,-49.37 -41.996,-30.512 h 51.911 z"
   style="fill:#ffd800"
   id="path363" />
    </g></g></g><g
     aria-label="13"
     transform="matrix(1.0261369,0,0,0.97452884,-4.7687269,-2.0486795)"
     id="text295-0"
     style="font-size:24.0373px;font-family:'Roboto Slab';-inkscape-font-specification:'Roboto Slab';display:inline;stroke-width:0.125194"><path
       d="M 33.731732,17.947126 H 37.60493 V 4.578725 L 33.39136,5.4237864 V 3.2641852 l 4.190096,-0.8450614 h 2.370867 V 17.947126 H 43.82552 V 19.94241 H 33.731732 Z"
       style="font-family:Roboto;-inkscape-font-specification:Roboto"
       id="path1131" /><path
       d="m 55.797222,10.494154 q 1.70186,0.363846 2.652554,1.514069 0.962431,1.150222 0.962431,2.840345 0,2.593868 -1.784018,4.014041 -1.784019,1.420172 -5.070368,1.420172 -1.103275,0 -2.276971,-0.223002 -1.16196,-0.211265 -2.406078,-0.645533 v -2.288708 q 0.985905,0.575112 2.159601,0.868536 1.173697,0.293424 2.453026,0.293424 2.230023,0 3.391982,-0.880272 1.173696,-0.880273 1.173696,-2.558658 0,-1.54928 -1.091537,-2.417815 -1.079801,-0.880272 -3.0164,-0.880272 H 50.902909 V 9.6021452 h 2.136127 q 1.748807,0 2.676028,-0.6924809 0.92722,-0.7042177 0.92722,-2.0187576 0,-1.3497507 -0.962431,-2.0657055 -0.950694,-0.7276917 -2.734713,-0.7276917 -0.974168,0 -2.089179,0.2112654 -1.115012,0.2112653 -2.453025,0.6572699 V 2.8533915 q 1.34975,-0.3755828 2.523447,-0.5633743 1.185433,-0.1877914 2.230023,-0.1877914 2.699501,0 4.272254,1.2323811 1.572753,1.2206442 1.572753,3.3098236 0,1.4553834 -0.833324,2.4647622 -0.833325,0.9976423 -2.370867,1.3849613 z"
       style="font-family:Roboto;-inkscape-font-specification:Roboto"
       id="path1133" /></g><g
     aria-label="12"
     transform="matrix(1.0261369,0,0,0.97452884,-4.7687269,-2.0486795)"
     id="text831"
     style="font-size:24.0373px;font-family:'Roboto Slab';-inkscape-font-specification:'Roboto Slab';display:none;stroke-width:0.125194"><path
       d="m 33.661425,18.071687 h 3.873198 V 4.7032863 l -4.21357,0.8450614 V 3.3887465 l 4.190096,-0.8450614 h 2.370867 V 18.071687 h 3.873198 v 1.995284 H 33.661425 Z"
       style="font-family:Roboto;-inkscape-font-specification:Roboto"
       id="path866" /><path
       d="m 50.586126,18.071687 h 8.274559 v 1.995284 H 47.734044 v -1.995284 q 1.34975,-1.396698 3.673669,-3.744091 2.335656,-2.35913 2.934241,-3.039873 1.138485,-1.279329 1.58449,-2.1596016 0.457741,-0.8920092 0.457741,-1.7488075 0,-1.3966986 -0.985904,-2.2769708 -0.974168,-0.8802722 -2.546921,-0.8802722 -1.115012,0 -2.35913,0.3873197 -1.232381,0.3873198 -2.640817,1.1736963 V 3.3887465 q 1.43191,-0.5751112 2.676028,-0.8685353 1.244118,-0.2934241 2.276971,-0.2934241 2.722975,0 4.342676,1.3614878 1.619701,1.3614877 1.619701,3.6384585 0,1.0798006 -0.410794,2.0539685 -0.399057,0.9624311 -1.46712,2.2769711 -0.293424,0.340372 -1.866177,1.971809 -1.572753,1.619701 -4.436572,4.542205 z"
       style="font-family:Roboto;-inkscape-font-specification:Roboto"
       id="path868" /></g><g
     aria-label="Arvostelua"
     id="text835"
     style="font-size:8.58158px;font-family:'Roboto Slab';-inkscape-font-specification:'Roboto Slab';stroke-width:0.0446956"
     transform="translate(-4.7687269,-2.0486795)"><path
       d="m 81.532385,22.362449 -1.148121,3.113337 h 2.300433 z M 81.0547,21.528594 h 0.959561 l 2.384238,6.256005 H 83.518552 L 82.948681,26.179743 H 80.12866 l -0.569871,1.604856 h -0.892517 z"
       style="font-family:Roboto;-inkscape-font-specification:Roboto"
       id="path845" /><path
       d="m 87.997902,23.812266 q -0.129897,-0.07542 -0.284935,-0.108946 -0.150848,-0.03771 -0.335218,-0.03771 -0.653675,0 -1.005654,0.427403 -0.347789,0.423213 -0.347789,1.219356 v 2.472232 H 85.249115 V 23.09155 h 0.775191 v 0.729099 q 0.243033,-0.427403 0.632724,-0.632724 0.389691,-0.209511 0.946991,-0.209511 0.07961,0 0.175989,0.01257 0.09637,0.0084 0.213702,0.02933 z"
       style="font-family:Roboto;-inkscape-font-specification:Roboto"
       id="path847" /><path
       d="m 88.253506,23.091548 h 0.817093 l 1.466579,3.938811 1.466579,-3.938811 h 0.817094 l -1.759895,4.693051 H 90.0134 Z"
       style="font-family:Roboto;-inkscape-font-specification:Roboto"
       id="path849" /><path
       d="m 95.703725,23.632087 q -0.620153,0 -0.980513,0.486066 -0.360359,0.481876 -0.360359,1.324111 0,0.842235 0.356169,1.328301 0.36036,0.481876 0.984703,0.481876 0.615963,0 0.976322,-0.486066 0.36036,-0.486066 0.36036,-1.324111 0,-0.833855 -0.36036,-1.319921 -0.360359,-0.490256 -0.976322,-0.490256 z m 0,-0.653675 q 1.005654,0 1.579715,0.653675 0.574061,0.653675 0.574061,1.810177 0,1.152311 -0.574061,1.810177 -0.574061,0.653675 -1.579715,0.653675 -1.009844,0 -1.583905,-0.653675 -0.56987,-0.657866 -0.56987,-1.810177 0,-1.156502 0.56987,-1.810177 0.574061,-0.653675 1.583905,-0.653675 z"
       style="font-family:Roboto;-inkscape-font-specification:Roboto"
       id="path851" /><path
       d="m 102.12734,23.229825 v 0.729099 q -0.32684,-0.167609 -0.67882,-0.251413 -0.35198,-0.08381 -0.7291,-0.08381 -0.57406,0 -0.863183,0.17599 -0.284935,0.175989 -0.284935,0.527968 0,0.268174 0.205321,0.423213 0.205321,0.150848 0.825477,0.289125 l 0.26398,0.05866 q 0.82129,0.17599 1.16488,0.498637 0.34779,0.318457 0.34779,0.892518 0,0.653675 -0.51959,1.034985 -0.51539,0.381311 -1.42048,0.381311 -0.37712,0 -0.787764,-0.07542 -0.406452,-0.07123 -0.858996,-0.217892 v -0.796143 q 0.427403,0.222082 0.842235,0.335218 0.414835,0.108946 0.821285,0.108946 0.54473,0 0.83804,-0.18437 0.29332,-0.18856 0.29332,-0.527968 0,-0.314267 -0.2137,-0.481876 -0.20951,-0.167609 -0.92604,-0.322647 l -0.26818,-0.06285 q -0.716524,-0.150849 -1.034981,-0.460925 -0.318457,-0.314267 -0.318457,-0.858996 0,-0.662056 0.469305,-1.022415 0.469305,-0.360359 1.332493,-0.360359 0.4274,0 0.80452,0.06285 0.37712,0.06285 0.69558,0.18856 z"
       style="font-family:Roboto;-inkscape-font-specification:Roboto"
       id="path853" /><path
       d="m 104.36911,21.759056 v 1.332492 h 1.58809 v 0.599202 h -1.58809 v 2.547656 q 0,0.574061 0.15504,0.73748 0.15923,0.163419 0.6411,0.163419 h 0.79195 v 0.645294 h -0.79195 q -0.89252,0 -1.23192,-0.331027 -0.33941,-0.335218 -0.33941,-1.215166 V 23.69075 h -0.56568 v -0.599202 h 0.56568 v -1.332492 z"
       style="font-family:Roboto;-inkscape-font-specification:Roboto"
       id="path855" /><path
       d="m 110.98547,25.245323 v 0.37712 h -3.54493 q 0.0503,0.796143 0.47769,1.215166 0.43159,0.414832 1.1984,0.414832 0.44417,0 0.859,-0.108946 0.41902,-0.108946 0.82966,-0.326838 v 0.729099 q -0.41483,0.17599 -0.85061,0.268175 -0.43578,0.09219 -0.88414,0.09219 -1.12298,0 -1.78084,-0.653675 -0.65368,-0.653675 -0.65368,-1.768275 0,-1.152312 0.62015,-1.826938 0.62435,-0.678816 1.68028,-0.678816 0.94699,0 1.49591,0.611772 0.55311,0.607583 0.55311,1.655139 z m -0.771,-0.226272 q -0.008,-0.632724 -0.35617,-1.009844 -0.3436,-0.37712 -0.91347,-0.37712 -0.64529,0 -1.03498,0.364549 -0.3855,0.36455 -0.44416,1.026605 z"
       style="font-family:Roboto;-inkscape-font-specification:Roboto"
       id="path857" /><path
       d="m 112.25092,21.26461 h 0.771 v 6.519989 h -0.771 z"
       style="font-family:Roboto;-inkscape-font-specification:Roboto"
       id="path859" /><path
       d="m 114.55555,25.93252 v -2.840972 h 0.771 v 2.81164 q 0,0.666246 0.25979,1.001464 0.25979,0.331028 0.77938,0.331028 0.62435,0 0.98471,-0.398071 0.36455,-0.398072 0.36455,-1.085269 v -2.660792 h 0.771 v 4.693051 h -0.771 v -0.720718 q -0.28075,0.427403 -0.65368,0.636914 -0.36874,0.205321 -0.859,0.205321 -0.80871,0 -1.22773,-0.502827 -0.41902,-0.502827 -0.41902,-1.470769 z m 1.94007,-2.954108 z"
       style="font-family:Roboto;-inkscape-font-specification:Roboto"
       id="path861" /><path
       d="m 122.2069,25.425503 q -0.93442,0 -1.29478,0.213701 -0.36036,0.213702 -0.36036,0.729099 0,0.410642 0.26817,0.653675 0.27237,0.238843 0.73748,0.238843 0.64111,0 1.02661,-0.452544 0.38969,-0.456735 0.38969,-1.210975 v -0.171799 z m 1.53781,-0.318457 v 2.677553 h -0.771 v -0.712338 q -0.26399,0.427403 -0.65787,0.632724 -0.39388,0.201131 -0.96375,0.201131 -0.72072,0 -1.14812,-0.402262 -0.42321,-0.406452 -0.42321,-1.085268 0,-0.791952 0.52796,-1.194214 0.53216,-0.402262 1.58391,-0.402262 h 1.08108 v -0.07542 q 0,-0.532158 -0.35198,-0.821284 -0.34779,-0.293315 -0.98051,-0.293315 -0.40227,0 -0.78358,0.09638 -0.38131,0.09637 -0.73329,0.289125 v -0.712338 q 0.42322,-0.163419 0.82129,-0.243033 0.39807,-0.0838 0.77519,-0.0838 1.01822,0 1.52105,0.527968 0.50283,0.527968 0.50283,1.600666 z"
       style="font-family:Roboto;-inkscape-font-specification:Roboto"
       id="path863" /></g><g
     id="g1100"
     transform="translate(-4.7687269,-2.0486795)"><path
       fill="url(#a)"
       d="M 15.750111,29.367987 C 9.5032162,28.250121 4.768727,22.858066 4.768727,16.348146 c 0,-7.2332454 5.91811,-13.1513557 13.151357,-13.1513557 7.233243,0 13.151354,5.9181103 13.151354,13.1513557 0,6.50992 -4.734489,11.901975 -10.981381,13.019841 l -0.723325,-0.59181 h -2.893298 z"
       id="path231"
       style="fill:url(#a);stroke-width:0.657567" /><path
       fill="#ffffff"
       d="m 23.049113,20.030524 0.59181,-3.682378 h -3.485109 v -2.564515 c 0,-1.052109 0.39454,-1.84119 1.972703,-1.84119 h 1.709677 V 8.5888455 c -0.920595,-0.1315214 -1.972704,-0.263026 -2.893299,-0.263026 -3.024811,0 -5.129027,1.8411885 -5.129027,5.1290285 v 2.893298 h -3.287842 v 3.682378 h 3.287842 v 9.271704 c 0.723324,0.131523 1.446647,0.197258 2.169972,0.197258 0.723326,0 1.446648,-0.06576 2.169974,-0.197258 v -9.271704 z"
       id="path233"
       style="stroke-width:0.657567" /></g></svg>
