<svg id="van" xmlns="http://www.w3.org/2000/svg" width="1000" height="1000" viewBox="0 0 1000 1000">
  <defs>
    <style>
      .cls-1 {
        fill: none;
        stroke: #303545;
        stroke-width: 25px;
      }

      .cls-1, .cls-2, .cls-3, .cls-4, .cls-5 {
        fill-rule: evenodd;
      }

      .cls-2 {
        fill: tomato;
      }

      .cls-3, .cls-4, .cls-5 {
        fill: #303545;
      }

      .cls-4, .cls-5 {
        stroke: #fff;
        stroke-width: 7px;
      }

      .cls-4 {
        stroke-linejoin: round;
      }
    </style>
  </defs>
  <path id="Polygon_1" data-name="Polygon 1" class="cls-1" d="M972.152,734.121L499.536,968.243,26.92,734.121V265.879L499.536,31.757,972.152,265.879V734.121Z"/>
  <path id="Fiksukuljetus.com" class="cls-2" d="M92.668,431.351H65.013V414.983h30.44V401.742H47.863v71.141h17.15V444.544H92.668V431.351Zm27.092-15.39H103.294v56.922H119.76V415.961Zm43.167,56.922h19.4l-19.2-31.564,19.153-25.358H161.51l-15.147,22.524V415.961H129.849v56.922h16.514V458.225l0.2,0.635,5.374-5.326Zm52.988-11.989a7.225,7.225,0,0,1-4.642,1.337q-5.326,0-7.6-1.748t-2.272-6.118H184.84a17.069,17.069,0,0,0,3.151,10.334,19.856,19.856,0,0,0,8.966,6.645,35.368,35.368,0,0,0,13.192,2.32q10.651,0,16.759-4.519a14.525,14.525,0,0,0,6.108-12.337q0-7.721-4.96-12.142T210.931,437.7a23.525,23.525,0,0,1-6.816-2.589,4.069,4.069,0,0,1-1.93-3.518,4.356,4.356,0,0,1,1.906-3.494,7.859,7.859,0,0,1,4.983-1.49,8.035,8.035,0,0,1,5.5,1.906,5.852,5.852,0,0,1,2.174,4.544H233.26a15.333,15.333,0,0,0-6.6-13.07q-6.6-4.812-17.736-4.813a28.589,28.589,0,0,0-11.311,2.174,18.553,18.553,0,0,0-7.965,6.108,14.717,14.717,0,0,0-2.858,8.868,17.866,17.866,0,0,0,1.173,6.84,12.226,12.226,0,0,0,3.664,4.862,22.915,22.915,0,0,0,6.328,3.493,74.481,74.481,0,0,0,9.478,2.785q5.644,1.32,7.891,2.876a4.8,4.8,0,0,1,2.248,4.134A4.356,4.356,0,0,1,215.915,460.894Zm58.7-44.933v36.458q0,4.589-1.93,6.565t-6.083,1.977q-4.056,0-6.107-1.977t-2.053-6.565V415.961H241.883v36.791q0.1,9.675,6.669,15.293t18.054,5.619q11.678,0,18.127-5.594t6.45-15.66V415.961H274.619Zm58.8,56.922h19.4l-19.2-31.564,19.153-25.358H332l-15.146,22.524V415.961H300.343v56.922h16.515V458.225l0.195,0.635,5.375-5.326Zm56.066-56.922v36.458q0,4.589-1.93,6.565t-6.083,1.977q-4.056,0-6.107-1.977t-2.052-6.565V415.961H356.751v36.791q0.1,9.675,6.67,15.293t18.053,5.619q11.678,0,18.128-5.594t6.449-15.66V415.961H389.487Zm42.239,0H415.211v56.922h41.238v-12.7H431.726V415.961Zm55.138,36.6q0,4.491-1.075,6.443a3.794,3.794,0,0,1-3.616,1.952q-2.931,0-4.128-1.71a9.5,9.5,0,0,1-1.2-5.375H460.284q0,9.684,5.643,14.737t16.246,5.051q9.236,0,15.22-5.838t5.986-15.22V415.961H486.864v36.6Zm64.519-15.449H529.005v-8.453H555.78v-12.7H512.49v56.922h43.046v-12.7H529.005V449.821h22.378v-12.7Zm59.73-21.156h-52.28v12.7h17.59v44.219h16.563V428.664h18.127v-12.7Zm39.258,0v36.458q0,4.589-1.93,6.565t-6.083,1.977q-4.056,0-6.107-1.977t-2.052-6.565V415.961H617.635v36.791q0.1,9.675,6.669,15.293t18.054,5.619q11.678,0,18.127-5.594t6.45-15.66V415.961H650.371Zm55.48,44.933a7.223,7.223,0,0,1-4.642,1.337q-5.325,0-7.6-1.748t-2.272-6.118H674.776a17.069,17.069,0,0,0,3.152,10.334,19.858,19.858,0,0,0,8.965,6.645,35.373,35.373,0,0,0,13.193,2.32q10.65,0,16.759-4.519a14.526,14.526,0,0,0,6.107-12.337q0-7.721-4.959-12.142T700.867,437.7a23.549,23.549,0,0,1-6.816-2.589,4.069,4.069,0,0,1-1.93-3.518,4.358,4.358,0,0,1,1.906-3.494,7.862,7.862,0,0,1,4.984-1.49,8.032,8.032,0,0,1,5.5,1.906,5.853,5.853,0,0,1,2.175,4.544H723.2a15.331,15.331,0,0,0-6.6-13.07q-6.6-4.812-17.736-4.813a28.589,28.589,0,0,0-11.311,2.174,18.55,18.55,0,0,0-7.964,6.108,14.711,14.711,0,0,0-2.859,8.868,17.866,17.866,0,0,0,1.173,6.84,12.228,12.228,0,0,0,3.665,4.862,22.908,22.908,0,0,0,6.327,3.493,74.55,74.55,0,0,0,9.479,2.785q5.643,1.32,7.891,2.876a4.8,4.8,0,0,1,2.247,4.134A4.356,4.356,0,0,1,705.851,460.894Zm30.2-1.643a8.1,8.1,0,0,0,0,11.824,10.251,10.251,0,0,0,13.021.024,8.1,8.1,0,0,0,0-11.873A10.249,10.249,0,0,0,736.046,459.251ZM797.218,453q0.193,7.963-9.43,7.964-5.523,0-7.72-3.611t-2.2-12l0.049-4.341q0.635-13.173,9.43-13.173,4.788,0,7.427,2.247a7.516,7.516,0,0,1,2.54,6.254h16.466q-0.831-9.82-7.842-15.513t-18.591-5.692a26.828,26.828,0,0,0-13.681,3.42,22.922,22.922,0,0,0-9.137,9.894,33.405,33.405,0,0,0-3.225,15.074v1.612q0,13.681,6.963,21.108t19.52,7.426q11.334,0,18.469-5.619A18.982,18.982,0,0,0,813.684,453H797.218Zm76.44-10.017a30.6,30.6,0,0,0-3.542-14.487,24.38,24.38,0,0,0-9.7-9.821,28.466,28.466,0,0,0-14.12-3.493,28.824,28.824,0,0,0-14.341,3.518,23.826,23.826,0,0,0-9.65,9.967,31.5,31.5,0,0,0-3.371,14.805v2A31.01,31.01,0,0,0,822.4,460.35a23.814,23.814,0,0,0,9.723,9.894,29.236,29.236,0,0,0,14.267,3.42,28.605,28.605,0,0,0,14.121-3.469,23.983,23.983,0,0,0,9.7-9.943,31.088,31.088,0,0,0,3.444-14.829V442.98Zm-16.612,2.834q-0.1,7.134-2.932,11.238a8.9,8.9,0,0,1-7.72,4.1,9.022,9.022,0,0,1-8.159-4.2q-2.688-4.2-2.688-11.531v-1.71q0-15.977,10.75-15.977a9.1,9.1,0,0,1,7.915,4.08q2.833,4.08,2.834,11.6v2.394Zm23.965-29.853v56.922h16.563v-8.795l-1.71-30.391L909.4,472.883H920.05l13.534-39.235-1.661,30.44v8.795h16.613V415.961H926.6l-11.873,36.3-11.873-36.3h-21.84Z"/>
  <path id="Muuttopalvelu_Pirkanmaa" data-name="Muuttopalvelu Pirkanmaa" class="cls-2" d="M233.792,510.406v51.188h12.34V549.641l-1.195-24.5,12.41,36.457H265.5l12.375-36.422-1.195,24.469v11.953h12.375V510.406H272.815l-11.39,35.614L250,510.406H233.792Zm86.431,10.231V546.87q0,3.3-1.389,4.723a5.889,5.889,0,0,1-4.377,1.423,6.1,6.1,0,0,1-4.394-1.423q-1.478-1.422-1.477-4.723V520.637H296.668v26.472a13.922,13.922,0,0,0,4.8,11q4.728,4.044,12.99,4.043,8.4,0,13.043-4.025t4.641-11.268V520.637H320.223Zm42.134,0V546.87q0,3.3-1.389,4.723a5.889,5.889,0,0,1-4.377,1.423,6.1,6.1,0,0,1-4.394-1.423q-1.478-1.422-1.477-4.723V520.637H338.8v26.472a13.922,13.922,0,0,0,4.8,11q4.728,4.044,12.99,4.043,8.4,0,13.043-4.025t4.641-11.268V520.637H362.357Zm54.263,0H379v9.14h12.656v31.817h11.918V529.777H416.62v-9.14Zm40.376,0H419.379v9.14h12.656v31.817h11.918V529.777H457v-9.14Zm42.8,19.441a22.013,22.013,0,0,0-2.549-10.424,17.534,17.534,0,0,0-6.978-7.066,20.473,20.473,0,0,0-10.16-2.514,20.755,20.755,0,0,0-10.319,2.531,17.15,17.15,0,0,0-6.943,7.172,22.664,22.664,0,0,0-2.426,10.653v1.441a22.312,22.312,0,0,0,2.5,10.705,17.138,17.138,0,0,0,7,7.119,21.041,21.041,0,0,0,10.266,2.461,20.58,20.58,0,0,0,10.16-2.5,17.26,17.26,0,0,0,6.979-7.154,22.37,22.37,0,0,0,2.478-10.67v-1.758Zm-11.953,2.039a14.406,14.406,0,0,1-2.109,8.086,6.409,6.409,0,0,1-5.555,2.953,6.493,6.493,0,0,1-5.871-3.023q-1.933-3.024-1.934-8.3v-1.231q0-11.5,7.735-11.5a6.546,6.546,0,0,1,5.695,2.936q2.039,2.935,2.039,8.35v1.722Zm35.63,6.645q7.663-.141,12.323-3.867a11.776,11.776,0,0,0,4.658-9.633,13.527,13.527,0,0,0-2.2-7.576,14.448,14.448,0,0,0-6.169-5.2,21.481,21.481,0,0,0-9.141-1.845H505.089v40.957h11.882V548.762h6.5Zm-6.5-18.985h5.977a5.263,5.263,0,0,1,5.66,5.555,3.922,3.922,0,0,1-1.389,3.059,6.3,6.3,0,0,1-4.271,1.23h-5.977v-9.844Zm57.674,31.817h11.917l-16.171-40.957H559l-15.855,40.957h11.882l2.426-7.172h14.66Zm-10.161-27.985,0.141-.7,0.176,0.774,4.465,12.656H560.16Zm37.107-12.972H589.708v40.957H619.38v-9.141H601.591V520.637Zm28.915,0H618.167l14.308,40.957h13.36l14.414-40.957H647.874l-8.649,29.636-0.105.528-0.106-.668Zm60.908,15.222h-16.1v-6.082h19.266v-9.14H663.43v40.957H694.4v-9.141h-19.09V545h16.1v-9.141Zm19.107-15.222H698.638v40.957H728.31v-9.141H710.521V520.637Zm45.333,0V546.87q0,3.3-1.389,4.723a5.889,5.889,0,0,1-4.377,1.423,6.1,6.1,0,0,1-4.394-1.423q-1.477-1.422-1.477-4.723V520.637H732.3v26.472a13.918,13.918,0,0,0,4.8,11q4.728,4.044,12.99,4.043,8.4,0,13.043-4.025t4.641-11.268V520.637H755.854ZM335.445,630.627q9.351,0,14.713-4.483a14.811,14.811,0,0,0,5.361-11.971,16.8,16.8,0,0,0-2.478-9.052,16.308,16.308,0,0,0-7-6.153,23.8,23.8,0,0,0-10.389-2.162H315.23v51.188h12.34V630.627h7.875Zm-7.875-24.293H335.8a6.847,6.847,0,0,1,5.273,2.179A8.236,8.236,0,0,1,343,614.244a6.664,6.664,0,0,1-1.881,5.062,7.623,7.623,0,0,1-5.467,1.793H327.57V606.334Zm46.88,0.7H362.6v40.957H374.45V607.037Zm30.955,40.957h12.8v-0.457l-8.894-16.242a12.837,12.837,0,0,0,5.766-4.747,13.957,13.957,0,0,0,1.722-7.312,10.413,10.413,0,0,0-4.5-8.982q-4.5-3.217-12.48-3.217H381.709v40.957h11.883V634.423h4.676Zm-11.813-31.817h5.871q5.484,0,5.485,4.465,0,4.641-5.133,4.641h-6.223v-9.106Zm53.736,31.817h13.957l-13.817-22.711,13.782-18.246H446.308l-10.9,16.207V607.037H423.527v40.957H435.41V637.447l0.14,0.457,3.868-3.832Zm44.946,0h11.918L488.02,607.037H476.63l-15.856,40.957h11.883l2.426-7.172h14.66Zm-10.16-27.985,0.141-.7,0.176,0.774,4.464,12.656h-9.1Zm62.771-12.972H533.037v23.836l-13.816-23.836H507.338v40.957h11.883V624.158l13.816,23.836h11.848V607.037Zm6.415,0v40.957h11.918v-6.328l-1.23-21.868,9.738,28.2h7.664l9.738-28.231-1.2,21.9v6.328h11.953V607.037H584.1l-8.543,26.121-8.543-26.121H551.3Zm83.267,40.957h11.918l-16.172-40.957h-11.39l-15.856,40.957H614.95l2.426-7.172h14.66Zm-10.16-27.985,0.141-.7,0.175,0.774,4.465,12.656h-9.105Zm53.454,27.985h11.918l-16.172-40.957h-11.39l-15.856,40.957h11.883l2.426-7.172h14.66ZM667.7,620.009l0.141-.7,0.176,0.774,4.464,12.656h-9.105Z"/>
  <path id="Tehty_2022" data-name="Tehty                 2022" class="cls-3" d="M240.8,193.39h-25.39v5.654h8.95v24.722h7.323V199.044H240.8V193.39ZM260.319,208.5h-9.555v-3.61H262.2v-5.424H243.712v24.3h18.38v-5.424H250.764v-4.423h9.555V208.5Zm26.589-9.034H279.9v9.7h-8.241v-9.7h-7.051v24.3h7.051v-9.179H279.9v9.179h7.01v-24.3Zm25.024,0H289.609v5.424h7.511v18.881h7.072V204.885h7.74v-5.424Zm8.689,0h-7.552l8.262,15.522v8.783h7.051v-8.533l8.429-15.772h-7.573L324.9,209.1ZM707.71,218.342H695.756l3.922-4.527a52.427,52.427,0,0,0,4.538-5,15.365,15.365,0,0,0,2.076-3.567,9.488,9.488,0,0,0,.667-3.5,8.117,8.117,0,0,0-2.66-6.53q-2.659-2.274-7.583-2.274a11.529,11.529,0,0,0-5.55,1.335,9.8,9.8,0,0,0-3.88,3.7,9.977,9.977,0,0,0-1.4,5.164h7.051a5.614,5.614,0,0,1,1-3.411,3.092,3.092,0,0,1,2.608-1.367,3.051,3.051,0,0,1,2.482,1.023,4.536,4.536,0,0,1,.856,2.983q0,2.419-3.61,6.53l-9.763,10.264v4.59h21.2v-5.424Zm25.066-12.518q0-6.133-2.774-9.492a10.8,10.8,0,0,0-15.637-.021q-2.764,3.338-2.764,9.492v5.55q0,6.112,2.774,9.472a10.8,10.8,0,0,0,15.637.02q2.765-3.338,2.764-9.492v-5.529Zm-7.03,6.593a10.412,10.412,0,0,1-.877,4.809,2.831,2.831,0,0,1-2.649,1.533,2.869,2.869,0,0,1-2.712-1.575,10.905,10.905,0,0,1-.856-4.976v-7.761a10.2,10.2,0,0,1,.887-4.548,2.791,2.791,0,0,1,2.639-1.5,2.859,2.859,0,0,1,2.712,1.617,10.837,10.837,0,0,1,.856,4.892v7.511Zm32.305,5.925H746.1l3.922-4.527a52.427,52.427,0,0,0,4.538-5,15.365,15.365,0,0,0,2.076-3.567,9.488,9.488,0,0,0,.667-3.5,8.117,8.117,0,0,0-2.66-6.53q-2.66-2.274-7.583-2.274a11.529,11.529,0,0,0-5.55,1.335,9.8,9.8,0,0,0-3.88,3.7,9.977,9.977,0,0,0-1.4,5.164h7.051a5.614,5.614,0,0,1,1-3.411,3.091,3.091,0,0,1,2.608-1.367,3.051,3.051,0,0,1,2.482,1.023,4.542,4.542,0,0,1,.856,2.983q0,2.419-3.61,6.53l-9.763,10.264v4.59h21.2v-5.424Zm25.171,0H771.267l3.923-4.527a52.388,52.388,0,0,0,4.537-5,15.329,15.329,0,0,0,2.076-3.567,9.489,9.489,0,0,0,.668-3.5,8.12,8.12,0,0,0-2.66-6.53q-2.661-2.274-7.584-2.274a11.528,11.528,0,0,0-5.549,1.335,9.8,9.8,0,0,0-3.881,3.7,9.977,9.977,0,0,0-1.4,5.164h7.052a5.62,5.62,0,0,1,1-3.411,3.093,3.093,0,0,1,2.608-1.367,3.054,3.054,0,0,1,2.483,1.023,4.542,4.542,0,0,1,.855,2.983q0,2.419-3.609,6.53l-9.764,10.264v4.59h21.2v-5.424Z"/>
  <path class="cls-4" d="M699.783,936.342l-112.347.071H297.489V768.13H587.436v30.7s24.538-2.523,40.713,7.888,15.261,55.449,28.407,55.333C707.51,861.6,702.247,934.935,699.783,936.342ZM592.9,815.368l26.4,1.948L633,857.417l-40.1.007V815.368Z"/>
  <path id="Ellipse_1_copy" data-name="Ellipse 1 copy" class="cls-5" d="M383.033,904.948a31.269,31.269,0,1,1-31.269,31.269A31.269,31.269,0,0,1,383.033,904.948Zm229.987,0.764a31.269,31.269,0,1,1-31.269,31.269A31.269,31.269,0,0,1,613.02,905.712Z"/>
</svg>
