<svg id="van" xmlns="http://www.w3.org/2000/svg" width="1000" height="1000" viewBox="0 0 1000 1000">
  <defs>
    <style>
      .cls-1 {
        fill: none;
        stroke: #303545;
        stroke-width: 25px;
      }

      .cls-1, .cls-2, .cls-3, .cls-4, .cls-5 {
        fill-rule: evenodd;
      }

      .cls-2 {
        fill: tomato;
      }

      .cls-3, .cls-4, .cls-5 {
        fill: #303545;
      }

      .cls-4, .cls-5 {
        stroke: #fff;
        stroke-width: 7px;
      }

      .cls-4 {
        stroke-linejoin: round;
      }
    </style>
  </defs>
  <path id="Polygon_1" data-name="Polygon 1" class="cls-1" d="M972.152,734.121L499.536,968.243,26.92,734.121V265.879L499.536,31.757,972.152,265.879V734.121Z"/>
  <path id="Fiksupalvelu.fi" class="cls-2" d="M108,418.136H73.837v-20.22h37.6V381.559H52.651V469.44H73.837V434.433H108v-16.3Zm33.467-19.013H121.126V469.44h20.341V399.123Zm53.325,70.317h23.962l-23.721-38.991,23.661-31.326H193.041L174.33,426.948V399.123h-20.4V469.44h20.4V451.333l0.242,0.784,6.639-6.579Zm65.457-14.81a8.922,8.922,0,0,1-5.734,1.652q-6.581,0-9.386-2.16t-2.807-7.558H221.861a21.086,21.086,0,0,0,3.893,12.766,24.528,24.528,0,0,0,11.076,8.209,43.666,43.666,0,0,0,16.3,2.867q13.158,0,20.7-5.583a17.944,17.944,0,0,0,7.545-15.241q0-9.535-6.126-15t-21.156-8.6q-6.036-1.568-8.42-3.2a5.025,5.025,0,0,1-2.384-4.345,5.381,5.381,0,0,1,2.354-4.316,9.711,9.711,0,0,1,6.157-1.841,9.929,9.929,0,0,1,6.79,2.354,7.231,7.231,0,0,1,2.686,5.613h20.4a18.941,18.941,0,0,0-8.149-16.145q-8.148-5.945-21.909-5.946a35.317,35.317,0,0,0-13.973,2.686,22.922,22.922,0,0,0-9.839,7.545,18.179,18.179,0,0,0-3.531,10.955,22.069,22.069,0,0,0,1.449,8.45,15.111,15.111,0,0,0,4.527,6.006,28.322,28.322,0,0,0,7.816,4.315,92.081,92.081,0,0,0,11.71,3.441q6.971,1.629,9.747,3.552a5.933,5.933,0,0,1,2.777,5.107A5.383,5.383,0,0,1,260.249,454.63Zm72.519-55.507v45.038q0,5.668-2.385,8.11t-7.514,2.442q-5.012,0-7.545-2.442t-2.535-8.11V399.123H292.328v45.45q0.12,11.951,8.239,18.892t22.3,6.941q14.425,0,22.393-6.911t7.967-19.345V399.123H332.768Zm63.344,48.286q13.158-.24,21.155-6.639a20.214,20.214,0,0,0,8-16.538,23.228,23.228,0,0,0-3.773-13.007,24.8,24.8,0,0,0-10.592-8.933,36.857,36.857,0,0,0-15.693-3.169H364.545V469.44h20.4V447.409h11.166Zm-11.166-32.593h10.261a9.035,9.035,0,0,1,9.717,9.537,6.733,6.733,0,0,1-2.384,5.251q-2.385,2.113-7.333,2.112H384.946v-16.9Zm99.016,54.624h20.461l-27.765-70.317H457.1L429.881,469.44h20.4l4.165-12.313h25.169ZM466.518,421.4l0.242-1.207,0.3,1.328,7.665,21.729H459.094Zm63.707-22.272h-20.4V469.44h50.942V453.747H530.225V399.123Zm49.643,0H558.682l24.566,70.317h22.936l24.747-70.317H609.685l-14.848,50.882-0.181.905-0.181-1.147Zm104.569,26.135H656.793V414.816h33.076V399.123H636.392V469.44h53.175V453.747H656.793v-12.8h27.644V425.258Zm32.8-26.135h-20.4V469.44h50.942V453.747H717.24V399.123Zm77.831,0v45.038q0,5.668-2.385,8.11t-7.514,2.442q-5.012,0-7.545-2.442t-2.535-8.11V399.123H754.631v45.45q0.12,11.951,8.239,18.892t22.3,6.941q14.425,0,22.393-6.911t7.967-19.345V399.123H795.071ZM832.189,452.6a10,10,0,0,0,0,14.607,12.664,12.664,0,0,0,16.086.03,10.005,10.005,0,0,0,0-14.667A12.664,12.664,0,0,0,832.189,452.6Zm82.569-25.41H885.846V414.816h31.266V399.123H865.445V469.44h20.4V442.883h28.912V427.19Zm31.656-28.067h-20.34V469.44h20.34V399.123Z"/>
  <path id="Muuttopalvelu_Pirkanmaa" data-name="Muuttopalvelu Pirkanmaa" class="cls-2" d="M233.792,510.406v51.188h12.34V549.641l-1.195-24.5,12.41,36.457H265.5l12.375-36.422-1.195,24.469v11.953h12.375V510.406H272.815l-11.39,35.614L250,510.406H233.792Zm86.431,10.231V546.87q0,3.3-1.389,4.723a5.889,5.889,0,0,1-4.377,1.423,6.1,6.1,0,0,1-4.394-1.423q-1.478-1.422-1.477-4.723V520.637H296.668v26.472a13.922,13.922,0,0,0,4.8,11q4.728,4.044,12.99,4.043,8.4,0,13.043-4.025t4.641-11.268V520.637H320.223Zm42.134,0V546.87q0,3.3-1.389,4.723a5.889,5.889,0,0,1-4.377,1.423,6.1,6.1,0,0,1-4.394-1.423q-1.478-1.422-1.477-4.723V520.637H338.8v26.472a13.922,13.922,0,0,0,4.8,11q4.728,4.044,12.99,4.043,8.4,0,13.043-4.025t4.641-11.268V520.637H362.357Zm54.263,0H379v9.14h12.656v31.817h11.918V529.777H416.62v-9.14Zm40.376,0H419.379v9.14h12.656v31.817h11.918V529.777H457v-9.14Zm42.8,19.441a22.013,22.013,0,0,0-2.549-10.424,17.534,17.534,0,0,0-6.978-7.066,20.473,20.473,0,0,0-10.16-2.514,20.755,20.755,0,0,0-10.319,2.531,17.15,17.15,0,0,0-6.943,7.172,22.664,22.664,0,0,0-2.426,10.653v1.441a22.312,22.312,0,0,0,2.5,10.705,17.138,17.138,0,0,0,7,7.119,21.041,21.041,0,0,0,10.266,2.461,20.58,20.58,0,0,0,10.16-2.5,17.26,17.26,0,0,0,6.979-7.154,22.37,22.37,0,0,0,2.478-10.67v-1.758Zm-11.953,2.039a14.406,14.406,0,0,1-2.109,8.086,6.409,6.409,0,0,1-5.555,2.953,6.493,6.493,0,0,1-5.871-3.023q-1.933-3.024-1.934-8.3v-1.231q0-11.5,7.735-11.5a6.546,6.546,0,0,1,5.695,2.936q2.039,2.935,2.039,8.35v1.722Zm35.63,6.645q7.663-.141,12.323-3.867a11.776,11.776,0,0,0,4.658-9.633,13.527,13.527,0,0,0-2.2-7.576,14.448,14.448,0,0,0-6.169-5.2,21.481,21.481,0,0,0-9.141-1.845H505.089v40.957h11.882V548.762h6.5Zm-6.5-18.985h5.977a5.263,5.263,0,0,1,5.66,5.555,3.922,3.922,0,0,1-1.389,3.059,6.3,6.3,0,0,1-4.271,1.23h-5.977v-9.844Zm57.674,31.817h11.917l-16.171-40.957H559l-15.855,40.957h11.882l2.426-7.172h14.66Zm-10.161-27.985,0.141-.7,0.176,0.774,4.465,12.656H560.16Zm37.107-12.972H589.708v40.957H619.38v-9.141H601.591V520.637Zm28.915,0H618.167l14.308,40.957h13.36l14.414-40.957H647.874l-8.649,29.636-0.105.528-0.106-.668Zm60.908,15.222h-16.1v-6.082h19.266v-9.14H663.43v40.957H694.4v-9.141h-19.09V545h16.1v-9.141Zm19.107-15.222H698.638v40.957H728.31v-9.141H710.521V520.637Zm45.333,0V546.87q0,3.3-1.389,4.723a5.889,5.889,0,0,1-4.377,1.423,6.1,6.1,0,0,1-4.394-1.423q-1.477-1.422-1.477-4.723V520.637H732.3v26.472a13.918,13.918,0,0,0,4.8,11q4.728,4.044,12.99,4.043,8.4,0,13.043-4.025t4.641-11.268V520.637H755.854ZM335.445,630.627q9.351,0,14.713-4.483a14.811,14.811,0,0,0,5.361-11.971,16.8,16.8,0,0,0-2.478-9.052,16.308,16.308,0,0,0-7-6.153,23.8,23.8,0,0,0-10.389-2.162H315.23v51.188h12.34V630.627h7.875Zm-7.875-24.293H335.8a6.847,6.847,0,0,1,5.273,2.179A8.236,8.236,0,0,1,343,614.244a6.664,6.664,0,0,1-1.881,5.062,7.623,7.623,0,0,1-5.467,1.793H327.57V606.334Zm46.88,0.7H362.6v40.957H374.45V607.037Zm30.955,40.957h12.8v-0.457l-8.894-16.242a12.837,12.837,0,0,0,5.766-4.747,13.957,13.957,0,0,0,1.722-7.312,10.413,10.413,0,0,0-4.5-8.982q-4.5-3.217-12.48-3.217H381.709v40.957h11.883V634.423h4.676Zm-11.813-31.817h5.871q5.484,0,5.485,4.465,0,4.641-5.133,4.641h-6.223v-9.106Zm53.736,31.817h13.957l-13.817-22.711,13.782-18.246H446.308l-10.9,16.207V607.037H423.527v40.957H435.41V637.447l0.14,0.457,3.868-3.832Zm44.946,0h11.918L488.02,607.037H476.63l-15.856,40.957h11.883l2.426-7.172h14.66Zm-10.16-27.985,0.141-.7,0.176,0.774,4.464,12.656h-9.1Zm62.771-12.972H533.037v23.836l-13.816-23.836H507.338v40.957h11.883V624.158l13.816,23.836h11.848V607.037Zm6.415,0v40.957h11.918v-6.328l-1.23-21.868,9.738,28.2h7.664l9.738-28.231-1.2,21.9v6.328h11.953V607.037H584.1l-8.543,26.121-8.543-26.121H551.3Zm83.267,40.957h11.918l-16.172-40.957h-11.39l-15.856,40.957H614.95l2.426-7.172h14.66Zm-10.16-27.985,0.141-.7,0.175,0.774,4.465,12.656h-9.105Zm53.454,27.985h11.918l-16.172-40.957h-11.39l-15.856,40.957h11.883l2.426-7.172h14.66ZM667.7,620.009l0.141-.7,0.176,0.774,4.464,12.656h-9.105Z"/>
  <path id="Tehty_2022" data-name="Tehty                 2022" class="cls-3" d="M240.8,193.39h-25.39v5.654h8.95v24.722h7.323V199.044H240.8V193.39ZM260.319,208.5h-9.555v-3.61H262.2v-5.424H243.712v24.3h18.38v-5.424H250.764v-4.423h9.555V208.5Zm26.589-9.034H279.9v9.7h-8.241v-9.7h-7.051v24.3h7.051v-9.179H279.9v9.179h7.01v-24.3Zm25.024,0H289.609v5.424h7.511v18.881h7.072V204.885h7.74v-5.424Zm8.689,0h-7.552l8.262,15.522v8.783h7.051v-8.533l8.429-15.772h-7.573L324.9,209.1ZM707.71,218.342H695.756l3.922-4.527a52.427,52.427,0,0,0,4.538-5,15.365,15.365,0,0,0,2.076-3.567,9.488,9.488,0,0,0,.667-3.5,8.117,8.117,0,0,0-2.66-6.53q-2.659-2.274-7.583-2.274a11.529,11.529,0,0,0-5.55,1.335,9.8,9.8,0,0,0-3.88,3.7,9.977,9.977,0,0,0-1.4,5.164h7.051a5.614,5.614,0,0,1,1-3.411,3.092,3.092,0,0,1,2.608-1.367,3.051,3.051,0,0,1,2.482,1.023,4.536,4.536,0,0,1,.856,2.983q0,2.419-3.61,6.53l-9.763,10.264v4.59h21.2v-5.424Zm25.066-12.518q0-6.133-2.774-9.492a10.8,10.8,0,0,0-15.637-.021q-2.764,3.338-2.764,9.492v5.55q0,6.112,2.774,9.472a10.8,10.8,0,0,0,15.637.02q2.765-3.338,2.764-9.492v-5.529Zm-7.03,6.593a10.412,10.412,0,0,1-.877,4.809,2.831,2.831,0,0,1-2.649,1.533,2.869,2.869,0,0,1-2.712-1.575,10.905,10.905,0,0,1-.856-4.976v-7.761a10.2,10.2,0,0,1,.887-4.548,2.791,2.791,0,0,1,2.639-1.5,2.859,2.859,0,0,1,2.712,1.617,10.837,10.837,0,0,1,.856,4.892v7.511Zm32.305,5.925H746.1l3.922-4.527a52.427,52.427,0,0,0,4.538-5,15.365,15.365,0,0,0,2.076-3.567,9.488,9.488,0,0,0,.667-3.5,8.117,8.117,0,0,0-2.66-6.53q-2.66-2.274-7.583-2.274a11.529,11.529,0,0,0-5.55,1.335,9.8,9.8,0,0,0-3.88,3.7,9.977,9.977,0,0,0-1.4,5.164h7.051a5.614,5.614,0,0,1,1-3.411,3.091,3.091,0,0,1,2.608-1.367,3.051,3.051,0,0,1,2.482,1.023,4.542,4.542,0,0,1,.856,2.983q0,2.419-3.61,6.53l-9.763,10.264v4.59h21.2v-5.424Zm25.171,0H771.267l3.923-4.527a52.388,52.388,0,0,0,4.537-5,15.329,15.329,0,0,0,2.076-3.567,9.489,9.489,0,0,0,.668-3.5,8.12,8.12,0,0,0-2.66-6.53q-2.661-2.274-7.584-2.274a11.528,11.528,0,0,0-5.549,1.335,9.8,9.8,0,0,0-3.881,3.7,9.977,9.977,0,0,0-1.4,5.164h7.052a5.62,5.62,0,0,1,1-3.411,3.093,3.093,0,0,1,2.608-1.367,3.054,3.054,0,0,1,2.483,1.023,4.542,4.542,0,0,1,.855,2.983q0,2.419-3.609,6.53l-9.764,10.264v4.59h21.2v-5.424Z"/>
  <path class="cls-4" d="M699.783,936.342l-112.347.071H297.489V768.13H587.436v30.7s24.538-2.523,40.713,7.888,15.261,55.449,28.407,55.333C707.51,861.6,702.247,934.935,699.783,936.342ZM592.9,815.368l26.4,1.948L633,857.417l-40.1.007V815.368Z"/>
  <path id="Ellipse_1_copy" data-name="Ellipse 1 copy" class="cls-5" d="M383.033,904.948a31.269,31.269,0,1,1-31.269,31.269A31.269,31.269,0,0,1,383.033,904.948Zm229.987,0.764a31.269,31.269,0,1,1-31.269,31.269A31.269,31.269,0,0,1,613.02,905.712Z"/>
</svg>
